{"title":"White House Down 2013 BRRip 480p x264 AAC - VYTO [P2PDL]","uid":9036425,"size":477906362,"categoryP":"video","categoryS":"movies","magnet":"?xt=urn:btih:39c73bc00d883e6e70651a5adb1c24cfa06d41f7&amp;dn=White+House+Down+2013+BRRip+480p+x264+AAC+-+VYTO+%5BP2PDL%5D&amp;tr=udp%3A%2F%2Ftracker.openbittorrent.com%3A80&amp;tr=udp%3A%2F%2Fopen.demonii.com%3A1337&amp;tr=udp%3A%2F%2Ftracker.coppersurfer.tk%3A6969&amp;tr=udp%3A%2F%2Fexodus.desync.com%3A6969","seeders":3,"leechers":0,"uploader":"Vitamin_X","files":-1,"time":1381515685,"description":"_______ Visit us at our Semi Public Bittorrent Community ________\n  &lt;a href=&quot;\nhttp://p2pdl.com&quot; rel=&quot;nofollow&quot; target=&quot;_NEW&quot;&gt;\nhttp://p2pdl.com&lt;/a&gt;  _____________________________ &lt;a href=&quot; http://p2pdl.com&quot; rel=&quot;nofollow&quot; target=&quot;_NEW&quot;&gt; http://p2pdl.com&lt;/a&gt;\n\n\nWhite House Down 2013 BRRip 480p x264 AAC - VYTO\n\n\nGenre: Animation | Adventure | Comedy\nPlot: While on a tour of the White House with his \nyoung daughter, a Capitol policeman springs into \naction to save his child and protect the president \nfrom a heavily armed group of paramilitary invaders.\nDirector: Roland Emmerich\nStars: Channing Tatum, Jamie Foxx, Maggie Gyllenhaal\nRated: Rated PG-13 for prolonged sequences of action \nand violence including intense gunfire and explosions, \nsome language and a brief sexual image.\n\nInfo: &lt;a href=&quot;\nhttp://www.imdb.com/title/tt2334879/&quot; rel=&quot;nofollow&quot; target=&quot;_NEW&quot;&gt;\nhttp://www.imdb.com/title/tt2334879/&lt;/a&gt;\n\n\nGeneral\nFormat                         : MPEG-4\nFile size                      : 452 MiB\nDuration                       : 2h 11mn\nOverall bit rate mode          : Variable\nOverall bit rate               : 480 Kbps\n\nVideo\nFormat                         : AVC\nBit rate                       : 437 Kbps\nWidth                          : 720 pixels\nHeight                         : 304 pixels\nDisplay aspect ratio           : 2.35:1\nFrame rate mode                : Constant\nFrame rate                     : 23.976 fps\nBit depth                      : 10 bits\nStream size                    : 411 MiB (91%)\nWriting library                : x264 core 138 r2358 9e941d1\n\nAudio\nFormat                         : AAC\nBit rate                       : 40.0 Kbps\nChannel(s)                     : 2 channels\nChannel positions              : Front: L R\nSampling rate                  : 48.0 KHz / 24.0 KHz\nStream size                    : 37.6 MiB (8%)\nLanguage                       : English\n\n\nSubtitle                       : Yes (English)\n\nSource                         : 720p.BluRay.DTS.x264-PublicHD\n\n &lt;a href=&quot;\nhttp://ultraimg.com/images/VnoHg.png&quot; rel=&quot;nofollow&quot; target=&quot;_NEW&quot;&gt;\nhttp://ultraimg.com/images/VnoHg.png&lt;/a&gt; &lt;a href=&quot;\nhttp://ultraimg.com/images/e2Nfa.png&quot; rel=&quot;nofollow&quot; target=&quot;_NEW&quot;&gt;\nhttp://ultraimg.com/images/e2Nfa.png&lt;/a&gt; &lt;a href=&quot;\nhttp://ultraimg.com/images/u7wnX.png&quot; rel=&quot;nofollow&quot; target=&quot;_NEW&quot;&gt;\nhttp://ultraimg.com/images/u7wnX.png&lt;/a&gt; &lt;a href=&quot;\nhttp://ultraimg.com/images/RILXs.png&quot; rel=&quot;nofollow&quot; target=&quot;_NEW&quot;&gt;\nhttp://ultraimg.com/images/RILXs.png&lt;/a&gt; &lt;a href=&quot;\nhttp://ultraimg.com/images/dxacN.png&quot; rel=&quot;nofollow&quot; target=&quot;_NEW&quot;&gt;\nhttp://ultraimg.com/images/dxacN.png&lt;/a&gt; &lt;a href=&quot;\nhttp://ultraimg.com/images/INQjs.png&quot; rel=&quot;nofollow&quot; target=&quot;_NEW&quot;&gt;\nhttp://ultraimg.com/images/INQjs.png&lt;/a&gt; &lt;a href=&quot;\nhttp://ultraimg.com/images/DQdM.png&quot; rel=&quot;nofollow&quot; target=&quot;_NEW&quot;&gt;\nhttp://ultraimg.com/images/DQdM.png&lt;/a&gt;\n\n\n----------------------------------------------------------------------------------------------------\n\n\nEncoded using revolutionary 10bit encoding, which enables us to provide you more crispier \nand sharper images at small sizes, just make sure you follow our instructions without a fault.\nRecommend to you to use latest version of VLC player. Install K-Lite Codec Pack or shark007 codecs\nin case of any kind of problem in playback (For non-VLC Media Player users). Alternatively, install\nCore AVC codecs, the fastest decoder that there is coupled with Community Center Codec Pack and play\non Windows Media Player Classic. Check sample to be sure.\nEnjoy!\n\nEncoder Notes:Looking For Early Access To Anything You Can Provide DVDScr, R5, DVDR, BluRay, Direct\nAudio, Music Releases and Seedboxes. We require dedicated servers, so as to do more \nand fast releases of movies.\nIf You Got anything to offer please contact us at &quot;&lt;a class=&quot;__cf_email__&quot; href=&quot;/cdn-cgi/l/email-protection&quot; data-cfemail=&quot;3040425770584543581e535f5d&quot;&gt;[email&amp;#160;protected]&lt;/a&gt;&lt;script cf-hash='f9e31' type=&quot;text/javascript&quot;&gt;\n/* &lt;![CDATA[ */!function(){try{var t=&quot;currentScript&quot;in document?document.currentScript:function(){for(var t=document.getElementsByTagName(&quot;script&quot;),e=t.length;e--;)if(t[e].getAttribute(&quot;cf-hash&quot;))return t[e]}();if(t&amp;&amp;t.previousSibling){var e,r,n,i,c=t.previousSibling,a=c.getAttribute(&quot;data-cfemail&quot;);if(a){for(e=&quot;&quot;,r=parseInt(a.substr(0,2),16),n=2;a.length-n;n+=2)i=parseInt(a.substr(n,2),16)^r,e+=String.fromCharCode(i);e=document.createTextNode(e),c.parentNode.replaceChild(e,c)}}}catch(u){}}();/* ]]&gt; */&lt;/script&gt;&quot;.\n\nFacebook Fan Page:  \nSearch P2PDL on FB and don't forget to hit like!!!\t\t\n\nFor more of our team uploads visit @           &lt;a href=&quot;\nhttp://thepiratebay.se/user/varuttee&quot; rel=&quot;nofollow&quot; target=&quot;_NEW&quot;&gt;\nhttp://thepiratebay.se/user/varuttee&lt;/a&gt;\t","torrent":{"xt":"urn:btih:39c73bc00d883e6e70651a5adb1c24cfa06d41f7","amp;dn":"White+House+Down+2013+BRRip+480p+x264+AAC+-+VYTO+%5BP2PDL%5D","amp;tr":["udp%3A%2F%2Ftracker.openbittorrent.com%3A80","udp%3A%2F%2Fopen.demonii.com%3A1337","udp%3A%2F%2Ftracker.coppersurfer.tk%3A6969","udp%3A%2F%2Fexodus.desync.com%3A6969"],"infoHash":"39c73bc00d883e6e70651a5adb1c24cfa06d41f7","infoHashBuffer":{"type":"Buffer","data":[57,199,59,192,13,136,62,110,112,101,26,90,219,28,36,207,160,109,65,247]},"announce":[],"urlList":[]}}